<?xml version="1.0" encoding="UTF-8"?>
<svg id="Layer_2" data-name="Layer 2" xmlns="http://www.w3.org/2000/svg" viewBox="0 0 126.24 110.63">
  <defs>
    <style>
      .cls-1 {
        fill: #1cb1f3;
      }

      .cls-1, .cls-2 {
        stroke-width: 0px;
      }

      .cls-2 {
        fill: #00cced;
      }
    </style>
  </defs>
  <g id="Layer_2-2" data-name="Layer 2">
    <g id="Icon">
      <path id="_" data-name="&amp;lt;" class="cls-2" d="M28.56,85.84L1.22,58.28c-1.63-1.64-1.63-4.29,0-5.93l27.34-27.56c1.64-1.65,4.3-1.66,5.95-.02h0c1.65,1.64,1.66,4.3.02,5.95l-21.46,21.63c-1.63,1.64-1.63,4.29,0,5.93l21.46,21.63c1.64,1.65,1.63,4.31-.02,5.95h0c-1.65,1.64-4.31,1.63-5.95-.02Z"/>
      <path id="_-2" data-name="&amp;gt;" class="cls-2" d="M91.73,85.86h0c-1.65-1.64-1.66-4.3-.02-5.95l21.46-21.63c1.63-1.64,1.63-4.29,0-5.93l-21.46-21.63c-1.64-1.65-1.63-4.31.02-5.95h0c1.65-1.64,4.31-1.63,5.95.02l27.34,27.56c1.63,1.64,1.63,4.29,0,5.93l-27.34,27.56c-1.64,1.65-4.3,1.66-5.95.02Z"/>
      <path id="branches" class="cls-1" d="M77.32,47.74c1.17,2.94,4.34,4.87,7.82,4.14,2.61-.55,4.7-2.66,5.21-5.28.86-4.36-2.47-8.21-6.69-8.21-2.87,0-5.34,1.78-6.34,4.3h-10.97c-.93,0-1.69-.76-1.69-1.69v-11.53c0-1.86,1.52-3.38,3.38-3.38h1.93c1.17,2.94,4.32,4.87,7.79,4.15,2.61-.55,4.7-2.66,5.23-5.28.87-4.37-2.47-8.22-6.69-8.22-2.87,0-5.33,1.78-6.33,4.3h-1.93c-4.65,0-8.43,3.77-8.43,8.43v11.92c0,1.73-.72,3.38-1.99,4.56l-12.82,11.84,3.42,3.71,2.27-2.1c.87-.8,2.21-.75,3.02.1l5.52,5.82c.38.4.59.93.59,1.48v14.36c0,4.65,3.77,8.43,8.43,8.43h1.93c1.17,2.94,4.32,4.87,7.79,4.15,2.61-.55,4.7-2.66,5.23-5.28.87-4.37-2.47-8.22-6.69-8.22-2.87,0-5.33,1.78-6.33,4.3h-1.93c-1.86,0-3.38-1.52-3.38-3.38v-12.01c0-.93.76-1.69,1.69-1.69h6.25c1,2.52,3.47,4.3,6.34,4.3,4.01,0,7.22-3.47,6.79-7.57-.33-3.07-2.79-5.6-5.86-6.01-3.26-.43-6.16,1.45-7.27,4.23h-9.38l-6.5-6.85c-.53-.56-.5-1.45.07-1.97l4.31-3.98c1.3-1.2,3-1.86,4.77-1.86h11.45ZM82.79,42.74c1.96-.64,3.78,1,3.44,2.95-.18,1.02-1,1.87-2.02,2.08-1.97.41-3.69-1.42-3.04-3.42.25-.75.86-1.37,1.61-1.61ZM75.79,21c1.96-.36,3.62,1.47,2.97,3.45-.25.75-.87,1.36-1.62,1.61-1.98.63-3.79-1.04-3.41-3,.2-1.03,1.03-1.86,2.06-2.05ZM75.5,84.56c1.79-.52,3.41.81,3.41,2.5,0,1.44-1.17,2.62-2.62,2.62-1.73,0-3.06-1.69-2.46-3.5.26-.77.9-1.39,1.67-1.62ZM78.38,62.38c1.97-.41,3.69,1.42,3.04,3.42-.25.75-.86,1.37-1.61,1.61-1.96.64-3.78-1-3.44-2.95.18-1.02,1-1.87,2.02-2.08Z"/>
      <path id="_-3" data-name="[" class="cls-1" d="M61.68,110.63c-5.26,0-10.17-2.56-13.83-7.22-3.47-4.43-5.4-10.28-5.43-16.48l-.28-63.08C42.09,10.75,50.67.05,61.28,0h2.54c1.86,0,3.37,1.51,3.37,3.37h0c0,1.86-1.51,3.37-3.37,3.37h-2.53c-6.88.03-12.46,7.7-12.42,17.1l.28,63.08c.02,4.71,1.44,9.09,3.99,12.35,2.36,3.01,5.41,4.68,8.59,4.64h2.54c1.86,0,3.37,1.51,3.37,3.37h0c0,1.86-1.51,3.37-3.37,3.37h-2.6Z"/>
    </g>
  </g>
</svg>
