<?xml version="1.0" encoding="UTF-8"?>
<svg id="Layer_2" data-name="Layer 2" xmlns="http://www.w3.org/2000/svg" viewBox="0 0 408.05 110.63">
  <defs>
    <style>
      .cls-1 {
        fill: #1cb1f3;
      }

      .cls-1, .cls-2, .cls-3 {
        stroke-width: 0px;
      }

      .cls-2 {
        fill: #00cced;
      }

      .cls-3 {
        fill: #fff;
      }
    </style>
  </defs>
  <g id="Layer_1-2" data-name="Layer 1">
    <g id="Icon">
      <path id="_" data-name="&amp;lt;" class="cls-2" d="M28.56,85.84L1.22,58.28c-1.63-1.64-1.63-4.29,0-5.93l27.34-27.56c1.64-1.65,4.3-1.66,5.95-.02h0c1.65,1.64,1.66,4.3.02,5.95l-21.46,21.63c-1.63,1.64-1.63,4.29,0,5.93l21.46,21.63c1.64,1.65,1.63,4.31-.02,5.95h0c-1.65,1.64-4.31,1.63-5.95-.02Z"/>
      <path id="_-2" data-name="&amp;gt;" class="cls-2" d="M91.73,85.86h0c-1.65-1.64-1.66-4.3-.02-5.95l21.46-21.63c1.63-1.64,1.63-4.29,0-5.93l-21.46-21.63c-1.64-1.65-1.63-4.31.02-5.95h0c1.65-1.64,4.31-1.63,5.95.02l27.34,27.56c1.63,1.64,1.63,4.29,0,5.93l-27.34,27.56c-1.64,1.65-4.3,1.66-5.95.02Z"/>
      <path id="branches" class="cls-1" d="M77.32,47.74c1.17,2.94,4.34,4.87,7.82,4.14,2.61-.55,4.7-2.66,5.21-5.28.86-4.36-2.47-8.21-6.69-8.21-2.87,0-5.34,1.78-6.34,4.3h-10.97c-.93,0-1.69-.76-1.69-1.69v-11.53c0-1.86,1.52-3.38,3.38-3.38h1.93c1.17,2.94,4.32,4.87,7.79,4.15,2.61-.55,4.7-2.66,5.23-5.28.87-4.37-2.47-8.22-6.69-8.22-2.87,0-5.33,1.78-6.33,4.3h-1.93c-4.65,0-8.43,3.77-8.43,8.43v11.92c0,1.73-.72,3.38-1.99,4.56l-12.82,11.84,3.42,3.71,2.27-2.1c.87-.8,2.21-.75,3.02.1l5.52,5.82c.38.4.59.93.59,1.48v14.36c0,4.65,3.77,8.43,8.43,8.43h1.93c1.17,2.94,4.32,4.87,7.79,4.15,2.61-.55,4.7-2.66,5.23-5.28.87-4.37-2.47-8.22-6.69-8.22-2.87,0-5.33,1.78-6.33,4.3h-1.93c-1.86,0-3.38-1.52-3.38-3.38v-12.01c0-.93.76-1.69,1.69-1.69h6.25c1,2.52,3.47,4.3,6.34,4.3,4.01,0,7.22-3.47,6.79-7.57-.33-3.07-2.79-5.6-5.86-6.01-3.26-.43-6.16,1.45-7.27,4.23h-9.38l-6.5-6.85c-.53-.56-.5-1.45.07-1.97l4.31-3.98c1.3-1.2,3-1.86,4.77-1.86h11.45ZM82.79,42.74c1.96-.64,3.78,1,3.44,2.95-.18,1.02-1,1.87-2.02,2.08-1.97.41-3.69-1.42-3.04-3.42.25-.75.86-1.37,1.61-1.61ZM75.79,21c1.96-.36,3.62,1.47,2.97,3.45-.25.75-.87,1.36-1.62,1.61-1.98.63-3.79-1.04-3.41-3,.2-1.03,1.03-1.86,2.06-2.05ZM75.5,84.56c1.79-.52,3.41.81,3.41,2.5,0,1.44-1.17,2.62-2.62,2.62-1.73,0-3.06-1.69-2.46-3.5.26-.77.9-1.39,1.67-1.62ZM78.38,62.38c1.97-.41,3.69,1.42,3.04,3.42-.25.75-.86,1.37-1.61,1.61-1.96.64-3.78-1-3.44-2.95.18-1.02,1-1.87,2.02-2.08Z"/>
      <path id="_-3" data-name="[" class="cls-1" d="M61.68,110.63c-5.26,0-10.17-2.56-13.83-7.22-3.47-4.43-5.4-10.28-5.43-16.48l-.28-63.08C42.09,10.75,50.67.05,61.28,0h2.54c1.86,0,3.37,1.51,3.37,3.37h0c0,1.86-1.51,3.37-3.37,3.37h-2.53c-6.88.03-12.46,7.7-12.42,17.1l.28,63.08c.02,4.71,1.44,9.09,3.99,12.35,2.36,3.01,5.41,4.68,8.59,4.64h2.54c1.86,0,3.37,1.51,3.37,3.37h0c0,1.86-1.51,3.37-3.37,3.37h-2.6Z"/>
    </g>
    <g id="Text">
      <g id="CodeLife">
        <path class="cls-3" d="M139.47,57.02c0-12.84,8.04-20.47,17.98-20.47,4.92,0,8.83,2.35,11.3,4.97l-3.72,4.49c-2.02-2.02-4.37-3.41-7.44-3.41-6.38,0-10.97,5.4-10.97,14.21s4.22,14.38,10.8,14.38c3.48,0,6.17-1.61,8.38-4.03l3.72,4.37c-3.18,3.7-7.27,5.71-12.36,5.71-9.86,0-17.69-7.22-17.69-20.21Z"/>
        <path class="cls-3" d="M173.55,61.8c0-9.82,6.67-15.48,14.02-15.48s14.02,5.66,14.02,15.48-6.67,15.43-14.02,15.43-14.02-5.66-14.02-15.43ZM194.47,61.8c0-5.9-2.59-9.84-6.91-9.84s-6.91,3.94-6.91,9.84,2.59,9.79,6.91,9.79,6.91-3.89,6.91-9.79Z"/>
        <path class="cls-3" d="M206.63,61.8c0-9.6,6.02-15.48,12.48-15.48,3.34,0,5.45,1.25,7.73,3.24l-.26-4.75v-10.68h6.91v42.38h-5.66l-.53-3.19h-.19c-2.18,2.18-5.21,3.91-8.38,3.91-7.34,0-12.1-5.71-12.1-15.43ZM226.57,68.2v-13.73c-2.02-1.8-4.01-2.45-6-2.45-3.74,0-6.84,3.55-6.84,9.7s2.45,9.79,6.7,9.79c2.28,0,4.2-1.01,6.14-3.31Z"/>
        <path class="cls-3" d="M240.32,61.8c0-9.58,6.65-15.48,13.58-15.48,7.97,0,12.17,5.76,12.17,13.99,0,1.32-.14,2.64-.3,3.36h-18.71c.58,5.23,3.94,8.21,8.69,8.21,2.52,0,4.68-.79,6.84-2.14l2.35,4.3c-2.81,1.9-6.36,3.19-10.1,3.19-8.14,0-14.52-5.71-14.52-15.43ZM260.1,58.96c0-4.54-2.02-7.3-6.05-7.3-3.43,0-6.46,2.57-7.06,7.3h13.1Z"/>
        <path class="cls-3" d="M273.29,37.27h6.96v33.38h16.3v5.86h-23.25v-39.24Z"/>
        <path class="cls-3" d="M302.02,37.97c0-2.33,1.82-3.91,4.27-3.91s4.27,1.58,4.27,3.91-1.82,3.91-4.27,3.91-4.27-1.63-4.27-3.91ZM302.81,47.04h6.91v29.47h-6.91v-29.47Z"/>
        <path class="cls-3" d="M315.74,47.35l4.32-.31h12.31v5.5h-16.63v-5.18ZM319.7,43.99c0-6.11,2.81-10.58,9.77-10.58,2.14,0,4.08.5,5.4,1.03l-1.32,5.16c-1.06-.46-2.18-.7-3.19-.7-2.45,0-3.74,1.55-3.74,4.97v32.64h-6.91v-32.52Z"/>
        <path class="cls-3" d="M335,61.8c0-9.58,6.65-15.48,13.58-15.48,7.97,0,12.17,5.76,12.17,13.99,0,1.32-.14,2.64-.3,3.36h-18.71c.58,5.23,3.94,8.21,8.69,8.21,2.52,0,4.68-.79,6.84-2.14l2.35,4.3c-2.81,1.9-6.36,3.19-10.1,3.19-8.14,0-14.52-5.71-14.52-15.43ZM354.78,58.96c0-4.54-2.02-7.3-6.05-7.3-3.43,0-6.46,2.57-7.06,7.3h13.1Z"/>
      </g>
      <g id="AI">
        <path class="cls-1" d="M375.65,37.27h8.16l12.79,39.24h-7.37l-5.98-20.88c-1.25-4.15-2.4-8.63-3.55-12.94h-.24c-1.08,4.34-2.23,8.78-3.48,12.94l-6.02,20.88h-7.1l12.79-39.24ZM370.41,60.42h18.48v5.46h-18.48v-5.46Z"/>
        <path class="cls-1" d="M401.09,37.27h6.96v39.24h-6.96v-39.24Z"/>
      </g>
    </g>
  </g>
</svg>
